PathFileType	4	(X/Y/Z)	/Volumes/GoogleDrive/My Drive/Research/Stanford/Projects/Digital Athlete Project/Sprinting/Sprint Simulation/sprinter/subjects/JA1/experimental_data/TRC/run0700cms.trc
DataRate	CameraRate	NumFrames	NumMarkers	Units	OrigDataRate	OrigDataStartFrame	OrigNumFrames
250.000000	250.000000	6	51	mm	250.000000	1	413
Frame#	Time	LPAT			RWR			LASI			LMFS			C7			LSH			RSH			RTHLD			T7			RTHLP			RARM			LLEPI			LLMAL			P3			RELB			RFOREARM			SACR			P1			P2			RTILAT			RTHAP			LTHLP			RLEPI			RPAT			LTIAD			LFOREARM			RLMAL			RP5MT			LTHLD			RMFL			LARM			LMFL			LTOE			RTHAD			MAN			RTOE			LTILAT			LHEEL			RHEEL			RMFS			LELB			RP1MT			RTIAP			LWR			RASI			LTHAP			LTHAD			LTIAP			RTIAD			LP5MT			LP1MT			
		X1	Y1	Z1	X2	Y2	Z2	X3	Y3	Z3	X4	Y4	Z4	X5	Y5	Z5	X6	Y6	Z6	X7	Y7	Z7	X8	Y8	Z8	X9	Y9	Z9	X10	Y10	Z10	X11	Y11	Z11	X12	Y12	Z12	X13	Y13	Z13	X14	Y14	Z14	X15	Y15	Z15	X16	Y16	Z16	X17	Y17	Z17	X18	Y18	Z18	X19	Y19	Z19	X20	Y20	Z20	X21	Y21	Z21	X22	Y22	Z22	X23	Y23	Z23	X24	Y24	Z24	X25	Y25	Z25	X26	Y26	Z26	X27	Y27	Z27	X28	Y28	Z28	X29	Y29	Z29	X30	Y30	Z30	X31	Y31	Z31	X32	Y32	Z32	X33	Y33	Z33	X34	Y34	Z34	X35	Y35	Z35	X36	Y36	Z36	X37	Y37	Z37	X38	Y38	Z38	X39	Y39	Z39	X40	Y40	Z40	X41	Y41	Z41	X42	Y42	Z42	X43	Y43	Z43	X44	Y44	Z44	X45	Y45	Z45	X46	Y46	Z46	X47	Y47	Z47	X48	Y48	Z48	X49	Y49	Z49	X50	Y50	Z50	X51	Y51	Z51	
1	0.004000	-5650.647949	545.224304	126.817612	-5762.825195	1050.826294	474.676727	-5369.024414	1057.143677	74.725006	-6161.703125	425.919006	169.237732	-5490.094238	1554.302124	177.133377	-5450.510742	1542.517700	27.277634	-5478.859375	1548.752930	350.342194	-5215.320801	817.276123	361.539246	-5549.619629	1361.804321	179.219604	-5308.424316	878.970337	380.833221	-5617.903809	1463.659058	428.725616	-5714.250977	623.899170	69.818840	-6148.539062	527.556274	109.485497	-5587.194336	1052.534180	202.629822	-5745.730469	1408.817139	462.687164	-5744.449707	1260.886475	476.972748	-5540.231445	1132.384399	204.982697	-5554.295410	1109.111816	152.095673	-5553.491699	1100.736572	258.499512	-5085.348633	492.099487	312.857086	-5215.025391	944.559509	287.449280	-5586.801270	813.635193	18.649521	-5111.022461	717.374451	321.946686	-5034.303223	770.469177	274.016357	-6012.803223	524.481812	150.193695	-5283.937012	1327.733887	-11.330770	-5045.340820	260.022156	257.074677	-4896.249023	202.772995	280.375122	-5641.466797	715.087524	38.145470	-4976.139160	229.748474	261.975952	-5391.983398	1352.831177	-63.434349	-6205.211426	449.731384	112.382744	-6201.346191	348.600067	171.944626	-5139.298828	887.114136	284.282379	-5357.737305	1461.909912	216.160400	-4862.805664	266.973846	208.893311	-5961.003906	580.712280	76.083282	-6184.971191	594.074524	154.138840	-5110.599609	218.282166	208.353134	-4942.343262	277.895203	212.968506	-5343.040527	1225.932617	-87.119858	-4880.988281	245.473831	164.640289	-5046.544922	516.710571	233.202118	-5216.640137	1470.573608	72.580910	-5353.798828	1083.401245	281.064911	-5415.329896	738.481535	114.293698	-5540.739258	656.001648	111.747063	-5872.237305	543.324280	143.195572	-5040.325684	391.132111	211.691833	-6263.425293	394.475403	86.079575	-6216.390137	374.197632	213.334000
2	0.008000	-5619.151367	543.006348	126.632599	-5731.543945	1048.301636	476.893921	-5341.358398	1058.344482	74.574577	-6136.299805	445.544983	168.017700	-5461.638184	1555.434448	177.523911	-5421.652832	1543.630371	27.354828	-5450.637207	1549.162476	350.610779	-5191.901855	810.312195	361.802429	-5522.160645	1363.276611	179.267410	-5284.424316	874.279114	381.345367	-5589.131836	1462.622925	428.991760	-5681.022461	622.236328	70.350693	-6119.030762	546.682739	108.917976	-5559.032715	1052.878906	202.174805	-5716.254395	1406.148071	463.120056	-5714.124512	1258.264526	477.902374	-5512.929688	1133.215454	204.638367	-5526.537109	1109.695190	151.625183	-5525.814453	1101.492432	258.104431	-5053.465332	482.935364	312.892242	-5187.920410	937.933289	288.289398	-5556.965332	813.128174	18.554981	-5089.757324	707.948364	321.408539	-5011.964355	760.784363	273.881714	-5983.773438	536.662781	150.409210	-5257.027832	1324.806763	-11.132193	-5004.639648	253.256348	257.737244	-4852.099609	202.811646	278.840118	-5611.070801	714.212524	38.239582	-4933.249512	226.431854	262.339722	-5366.515625	1353.453857	-63.669098	-6166.783691	474.286652	107.145920	-6179.870117	370.200653	170.147827	-5113.886230	878.076416	284.382904	-5328.130371	1462.091919	216.899780	-4822.885254	269.022675	207.149963	-5922.044922	588.593323	78.039940	-6152.481934	614.175720	154.036667	-5068.169434	208.727097	209.923050	-4902.505371	275.594147	211.556976	-5319.795410	1225.309082	-87.686409	-4840.730469	246.563065	163.379440	-5017.574707	509.135010	232.645630	-5186.129883	1464.895386	73.839493	-5326.471680	1084.533936	280.881653	-5396.940370	741.434160	105.173513	-5509.770996	655.649231	111.153969	-5842.674316	548.928528	143.697830	-5005.581055	383.726349	211.776382	-6238.737793	418.071960	84.242043	-6210.493164	391.879944	202.850677
3	0.012000	-5586.955078	540.644226	127.105156	-5699.010742	1045.604614	479.071014	-5313.465332	1059.536865	74.453194	-6110.360840	464.919159	166.777878	-5433.277344	1556.384033	177.952637	-5392.992676	1544.537476	27.328232	-5422.340820	1549.344971	350.947662	-5168.923828	802.831055	362.104401	-5494.710449	1364.638916	179.346512	-5259.922852	869.458435	381.293365	-5560.102539	1461.318359	429.416290	-5648.143555	620.357422	70.663612	-6088.010742	565.733704	108.304092	-5530.960449	1052.945801	201.750717	-5686.500488	1403.184814	463.821533	-5683.480469	1255.310791	479.054382	-5485.833984	1133.768555	204.266251	-5498.752441	1109.847534	151.138260	-5498.122070	1101.932983	257.719025	-5022.972168	475.411011	313.141937	-5161.047363	931.175903	289.361847	-5527.231934	812.562744	18.428320	-5068.688965	698.923401	321.174194	-4989.744141	750.640503	273.360138	-5953.501465	548.735229	150.512283	-5230.942383	1321.368408	-10.912721	-4965.812500	247.407852	258.516510	-4810.386230	203.113739	277.525787	-5580.517578	713.272888	38.489895	-4892.202637	223.366043	261.687408	-5341.354004	1353.746582	-64.043213	-6138.837402	496.048248	105.695969	-6155.703125	391.808380	167.834351	-5089.336426	869.250244	284.486938	-5296.263184	1461.660400	219.133850	-4784.949219	270.813080	205.476105	-5889.569336	596.772644	77.864830	-6118.537109	633.982727	153.942581	-5027.364746	200.296417	211.596146	-4864.755371	273.678192	210.994095	-5297.006836	1224.536377	-88.325729	-4802.838867	247.430099	161.771774	-4990.006348	502.092499	231.758270	-5154.281738	1458.124390	75.197487	-5299.065430	1085.526245	280.607483	-5376.735490	743.691628	98.831593	-5478.441895	654.787842	110.738792	-5813.250000	554.000305	145.091644	-4972.626953	377.135437	211.635468	-6212.578125	441.747101	82.233833	-6186.049805	413.769165	200.926895
4	0.016000	-5552.339844	540.352356	128.285233	-5665.944824	1042.505493	481.218811	-5285.727539	1060.609131	74.457962	-6082.991699	484.427124	165.225555	-5404.974609	1557.125000	178.405670	-5364.383789	1545.255127	27.359324	-5392.824219	1549.017578	351.406799	-5146.578125	795.056641	362.225037	-5467.268555	1365.878906	179.383865	-5236.091309	863.977661	380.961334	-5530.874512	1459.729370	429.950439	-5611.612793	617.264038	72.193703	-6055.738770	584.581909	107.536415	-5502.958984	1052.604858	201.339127	-5656.491699	1399.809326	464.736725	-5651.978516	1251.845947	480.153656	-5458.785156	1133.968506	203.819534	-5471.219238	1109.689941	150.769852	-5470.806152	1102.028320	257.415924	-4994.335449	469.584930	313.661072	-5134.163086	924.241028	290.279663	-5497.518066	811.940430	18.347061	-5047.243652	690.355713	321.484375	-4967.601074	740.347351	272.657654	-5921.635742	560.452026	150.340088	-5204.763672	1317.301636	-11.345614	-4928.704102	242.397186	259.342224	-4771.009766	203.134521	276.266937	-5549.530273	712.031311	38.780514	-4853.648926	220.006821	261.028870	-5316.249512	1353.755859	-64.474609	-6109.011230	517.456055	104.230484	-6131.275879	413.097565	165.659897	-5064.921387	860.411926	284.710846	-5272.176758	1462.837158	216.366806	-4749.559082	271.948944	203.173126	-5862.252441	605.178223	76.039314	-6083.240234	653.332336	153.819443	-4988.819824	193.043381	213.337021	-4828.584473	271.615570	210.735580	-5275.076172	1223.796875	-89.007240	-4766.947266	247.553802	160.178497	-4963.694824	495.558929	230.728302	-5121.971191	1450.037476	76.880287	-5271.875000	1086.595215	280.455536	-5354.791019	745.323108	94.830308	-5446.109375	653.883545	110.890686	-5781.913574	559.212585	145.704666	-4941.555176	371.502197	211.450500	-6184.689941	465.387115	80.050201	-6159.884277	435.510010	198.718674
5	0.020000	-5519.022949	537.754272	129.289093	-5631.727051	1039.147461	483.346619	-5258.139160	1061.699097	74.268837	-6053.600098	503.400757	163.664505	-5376.781250	1557.661621	178.963654	-5336.014648	1545.660278	27.259293	-5364.165527	1548.649536	352.010254	-5125.358398	787.070923	362.829315	-5439.985352	1366.881714	179.485794	-5212.246094	858.574646	380.680603	-5501.506836	1457.709839	430.680176	-5577.801758	614.596375	72.313835	-6022.161133	602.943787	106.653725	-5474.934082	1051.924438	201.012039	-5626.183105	1396.062866	465.812866	-5620.221191	1248.154785	481.483429	-5431.641602	1133.799561	203.448196	-5443.750488	1109.182373	150.327484	-5443.454102	1101.860107	257.067474	-4966.559570	463.964752	313.960907	-5107.587891	917.175232	291.684967	-5467.741699	811.166931	18.363184	-5024.690430	682.591553	320.960236	-4945.218750	729.888245	271.381226	-5888.691406	571.832275	150.177734	-5178.805176	1312.397461	-11.547881	-4893.330078	237.958176	260.296509	-4734.123535	202.398834	275.165466	-5517.867676	710.339600	39.086121	-4817.370605	217.259491	261.203217	-5291.463379	1353.681396	-64.986053	-6077.845703	538.622803	102.588417	-6105.220703	434.494629	163.128220	-5040.964355	851.515381	284.866760	-5244.794434	1463.048828	215.552063	-4715.847168	272.194336	201.777863	-5821.759277	612.254089	77.354065	-6046.391602	672.018738	153.665817	-4952.455078	186.669205	214.946991	-4794.052734	269.550568	210.127945	-5253.246582	1222.862427	-89.694077	-4732.937012	247.003876	159.111298	-4937.019043	489.931854	230.700531	-5088.067871	1440.357910	78.197014	-5244.857422	1087.607788	280.313019	-5331.182718	746.397766	92.732028	-5413.732910	652.555176	110.643539	-5749.215820	564.035339	145.859985	-4911.497559	366.623871	211.529373	-6153.380859	488.705811	78.088310	-6117.937500	460.690460	204.377304
6	0.024000	-5485.587891	534.791016	130.308380	-5597.142578	1035.303589	485.428223	-5230.679688	1062.742065	73.970032	-6023.733887	522.242859	162.358948	-5348.597656	1557.997314	179.639526	-5307.696777	1545.959839	27.212364	-5335.279785	1548.066895	352.546295	-5103.873535	779.528564	362.364349	-5412.623535	1367.756470	179.506454	-5188.923828	853.188354	379.717712	-5471.710938	1455.381104	431.507294	-5544.220215	611.589905	72.068542	-5987.177246	620.704407	105.837029	-5447.102051	1050.964966	200.679276	-5595.404297	1391.972534	467.095673	-5587.973633	1244.115723	482.950989	-5404.817383	1133.359375	203.035126	-5416.544434	1108.457886	149.998505	-5416.216309	1101.405273	256.703308	-4939.686523	458.468292	314.190247	-5081.053711	910.271973	293.180054	-5437.867188	810.177307	18.482874	-5001.639648	675.551758	320.932281	-4922.816895	719.716309	269.855103	-5854.676758	582.738892	149.907776	-5152.656250	1306.877319	-12.008321	-4859.994141	233.967789	261.186249	-4699.675293	200.716644	274.342072	-5485.756836	708.273254	39.200653	-4783.350586	214.324036	261.545441	-5266.888672	1353.323242	-65.471321	-6044.962891	559.196594	101.029732	-6077.238770	455.501953	160.028763	-5017.371582	842.740906	284.727356	-5215.791992	1462.785034	215.786530	-4684.093750	271.268494	200.793365	-5786.387695	619.452393	77.010216	-6007.910645	690.006226	153.601318	-4918.503418	181.165436	216.272781	-4761.791504	266.902802	209.907059	-5232.171875	1221.782104	-90.345901	-4700.780762	245.782196	158.436127	-4911.558594	484.729126	230.799271	-5054.323242	1429.466187	79.285767	-5217.718750	1088.659058	279.965729	-5305.986351	746.984771	92.099122	-5381.277344	650.985413	110.074059	-5715.008789	568.239075	145.552628	-4882.449219	361.888885	211.984283	-6121.980957	511.803070	75.719055	-6089.407227	482.086670	201.567520
